<?xml version="1.0" encoding="UTF-8"?>
<svg width="56px" height="34px" viewBox="0 0 56 34" version="1.1" xmlns="http://www.w3.org/2000/svg" xmlns:xlink="http://www.w3.org/1999/xlink">
    <title>未命名</title>
    <defs>
        <filter id="filter-1">
            <feColorMatrix in="SourceGraphic" type="matrix" values="0 0 0 0 0.917969 0 0 0 0 0.855842 0 0 0 0 0.650904 0 0 0 1.000000 0"></feColorMatrix>
        </filter>
    </defs>
    <g id="页面-1" stroke="none" stroke-width="1" fill="none" fill-rule="evenodd">
        <g filter="url(#filter-1)" id="night-cloud-left">
            <g>
                <path d="M44.18,12 C41.875,5.030625 35.30625,0 27.5625,0 C19.81875,0 13.25,5.030625 10.945,12 C4.86986775,12.0324467 -0.0286967291,16.9836178 0.00327391539,23.05875 C0.0361967291,29.1338822 4.98736775,34.0324467 11.0625,34.0004761 L45.0625,34.0004761 L45.0625,33.954375 C50.8983931,33.4245523 55.2944182,28.4127847 55.0590581,22.5576189 C54.823698,16.7024532 50.0395901,12.0596994 44.18,12 Z M45.0625,29.92875 L45.0625,30 L11.133125,30 C7.27625,30 4.090625,26.909375 4.06210329,23.051875 C4.03885531,19.1858818 7.15369425,16.0327072 11.0196875,16.0090625 C14.8856807,15.9854178 18.0388553,19.1002568 18.0625,22.96625 C18.0675,24.065625 18.9675,25.001875 20.066875,24.999375 C21.1694916,24.9969631 22.0621581,24.1026192 22.0625,23 C22.0619937,18.419484 19.2240123,14.318352 14.9375,12.70375 C16.875,7.61625 21.79625,4 27.5625,4 C33.32875,4 38.25,7.61625 40.1875,12.70375 C40.4168645,13.3068676 40.6023475,13.9257709 40.7425,14.555625 C40.9764891,15.5787278 41.963573,16.2452554 43,16.08 C46.8242267,15.5104564 50.3860814,18.1488983 50.955625,21.973125 C51.5251686,25.7973517 48.8867267,29.3592064 45.0625,29.92875 L45.0625,29.92875 Z" id="形状" fill="#EADAA6" fill-rule="nonzero"></path>
            </g>
        </g>
    </g>
</svg>