<?xml version="1.0" encoding="UTF-8"?>
<svg width="72px" height="45px" viewBox="0 0 72 45" version="1.1" xmlns="http://www.w3.org/2000/svg" xmlns:xlink="http://www.w3.org/1999/xlink">
    <title>未命名</title>
    <defs>
        <filter id="filter-1">
            <feColorMatrix in="SourceGraphic" type="matrix" values="0 0 0 0 0.917969 0 0 0 0 0.855842 0 0 0 0 0.650904 0 0 0 1.000000 0"></feColorMatrix>
        </filter>
    </defs>
    <g id="页面-1" stroke="none" stroke-width="1" fill="none" fill-rule="evenodd">
        <g filter="url(#filter-1)" id="云">
            <g>
                <path d="M48.7055,0 C51.7775,0 54.7215,0.608 57.5375,1.824 C60.3535,3.04 62.8388333,4.68266667 64.9935,6.752 C67.1481667,8.82133333 68.8548333,11.232 70.1135,13.984 C71.3721667,16.736 72.0015,19.6693333 72.0015,22.784 C72.0015,25.3013333 71.5961667,27.8613333 70.7855,30.464 C69.9748333,33.0666667 69.0148333,35.3706667 67.9055,37.376 C67.3508333,38.3573333 66.5721667,39.2533333 65.5695,40.064 C64.5668333,40.8746667 63.4895,41.5786667 62.3375,42.176 C61.1855,42.7733333 60.0548333,43.2426667 58.9455,43.584 C57.8361667,43.9253333 56.8975,44.096 56.1295,44.096 L11.4575,44.096 C9.7935,44.096 8.26816667,43.8186667 6.8815,43.264 C5.49483333,42.7093333 4.2895,41.9413333 3.2655,40.96 C2.2415,39.9786667 1.4415,38.7946667 0.8655,37.408 C0.2895,36.0213333 0.0015,34.496 0.0015,32.832 C0.0015,30.528 0.278833333,28.352 0.8335,26.304 C1.38816667,24.256 2.23083333,22.464 3.3615,20.928 C4.49216667,19.392 5.9215,18.176 7.6495,17.28 C9.3775,16.384 11.4148333,15.936 13.7615,15.936 C14.7855,15.936 15.6708333,16 16.4175,16.128 C17.1641667,16.256 17.8788333,16.4373333 18.5615,16.672 C19.2441667,16.9066667 19.9161667,17.216 20.5775,17.6 C21.2388333,17.984 21.9535,18.432 22.7215,18.944 C23.1481667,16.3413333 24.0655,13.888 25.4735,11.584 C26.8815,9.28 28.7055,7.264 30.9455,5.536 C33.1855,3.808 35.7988333,2.45333333 38.7855,1.472 C41.7721667,0.490666667 45.0788333,0 48.7055,0 L48.7055,0 Z M53.7615,36.224 C55.1268333,36.224 56.4388333,35.9253333 57.6975,35.328 C58.9561667,34.7306667 60.0761667,33.856 61.0575,32.704 C62.0388333,31.552 62.8175,30.144 63.3935,28.48 C63.9695,26.816 64.2575,24.9173333 64.2575,22.784 C64.2575,20.6506667 63.8735,18.6666667 63.1055,16.832 C62.3375,14.9973333 61.2708333,13.4186667 59.9055,12.096 C58.5401667,10.7733333 56.9295,9.73866667 55.0735,8.992 C53.2175,8.24533333 51.2228333,7.872 49.0895,7.872 C46.9561667,7.872 45.0895,8.04266667 43.4895,8.384 C41.8895,8.72533333 40.5028333,9.152 39.3295,9.664 C38.1561667,10.176 37.1641667,10.7413333 36.3535,11.36 C35.5428333,11.9786667 34.8601667,12.5653333 34.3055,13.12 C33.7081667,13.7173333 33.1321667,14.432 32.5775,15.264 C32.0228333,16.096 31.5428333,16.96 31.1375,17.856 C30.7321667,18.752 30.4121667,19.648 30.1775,20.544 C29.9428333,21.44 29.8895,22.2293333 30.0175,22.912 C30.1881667,24.1493333 29.9535,25.1946667 29.3135,26.048 C28.6735,26.9013333 27.8521667,27.5093333 26.8495,27.872 C25.8468333,28.2346667 24.7908333,28.32 23.6815,28.128 C22.5721667,27.936 21.6548333,27.4133333 20.9295,26.56 C20.1188333,25.7066667 19.1695,25.0453333 18.0815,24.576 C16.9935,24.1066667 15.6388333,23.872 14.0175,23.872 C12.6948333,23.872 11.6281667,24.128 10.8175,24.64 C10.0068333,25.152 9.36683333,25.792 8.8975,26.56 C8.42816667,27.328 8.10816667,28.1706667 7.9375,29.088 C7.76683333,30.0053333 7.6815,30.8693333 7.6815,31.68 C7.6815,32.3626667 7.83083333,32.9813333 8.1295,33.536 C8.42816667,34.0906667 8.82283333,34.5706667 9.3135,34.976 C9.80416667,35.3813333 10.3481667,35.6906667 10.9455,35.904 C11.5428333,36.1173333 12.1401667,36.224 12.7375,36.224 L53.7615,36.224 L53.7615,36.224 Z" id="形状" fill="#000000" fill-rule="nonzero"></path>
            </g>
        </g>
    </g>
</svg>