<?xml version="1.0" encoding="UTF-8"?>
<svg width="57px" height="55px" viewBox="0 0 57 55" version="1.1" xmlns="http://www.w3.org/2000/svg" xmlns:xlink="http://www.w3.org/1999/xlink">
    <title>未命名</title>
    <defs>
        <filter id="filter-1">
            <feColorMatrix in="SourceGraphic" type="matrix" values="0 0 0 0 0.917969 0 0 0 0 0.855842 0 0 0 0 0.650904 0 0 0 1.000000 0"></feColorMatrix>
        </filter>
    </defs>
    <g id="页面-1" stroke="none" stroke-width="1" fill="none" fill-rule="evenodd">
        <g filter="url(#filter-1)" id="线性m月亮">
            <g>
                <path d="M0.05125,7.784375 C0.05125,8.36560146 0.361330608,8.90267687 0.86468749,9.19329011 C1.36804437,9.48390334 1.98820563,9.48390334 2.49156251,9.19329011 C2.99491939,8.90267687 3.305,8.36560146 3.305,7.784375 C3.305,7.20314854 2.99491939,6.66607313 2.49156251,6.37545989 C1.98820563,6.08484666 1.36804437,6.08484666 0.86468749,6.37545989 C0.361330608,6.66607313 0.05125,7.20314854 0.05125,7.784375 L0.05125,7.784375 Z" id="路径" fill="#4D73B6" fill-rule="nonzero"></path>
                <path d="M2.898125,1.6575 C2.898125,2.55599825 3.62650175,3.284375 4.525,3.284375 C5.42349825,3.284375 6.151875,2.55599825 6.151875,1.6575 C6.151875,0.759001748 5.42349825,0.030625 4.525,0.030625 C3.62650175,0.030625 2.898125,0.759001748 2.898125,1.6575 L2.898125,1.6575 Z" id="路径" fill="#44BDDC" fill-rule="nonzero"></path>
                <path d="M52.82,4.504375 C52.82,5.40287325 53.5483767,6.13125 54.446875,6.13125 C55.3453733,6.13125 56.07375,5.40287325 56.07375,4.504375 C56.07375,3.60587675 55.3453733,2.8775 54.446875,2.8775 C53.5483767,2.8775 52.82,3.60587675 52.82,4.504375 L52.82,4.504375 Z" id="路径" fill="#4D73B6" fill-rule="nonzero"></path>
                <path d="M28.05875,54.84375 C13.4925,54.84375 1.6425,42.990625 1.6425,28.421875 C1.6425,16.52125 9.66875,6.04375 21.161875,2.94375 C21.988125,2.72375 22.865,3.026875 23.375,3.715 C23.88375,4.403125 23.919375,5.3325 23.46375,6.056875 C21.499375,9.18375 20.46125,12.7725 20.46125,16.435 C20.46125,27.221875 29.24125,35.99875 40.034375,35.99875 C43.705,35.99875 47.298125,34.956875 50.426875,32.984375 C51.1511195,32.5280228 52.0809958,32.5620034 52.77,33.07 C53.4582088,33.578312 53.764968,34.456184 53.543125,35.2825 C50.4475,46.8 39.968125,54.84375 28.05875,54.84375 Z M17.573125,8.808125 C10.45625,12.610625 5.8,20.10375 5.8,28.4225 C5.8,40.69875 15.785,50.68625 28.058125,50.68625 C36.38625,50.68625 43.88375,46.01625 47.683125,38.87875 C45.2214619,39.724421 42.6366224,40.1561075 40.03375,40.15625 C26.94875,40.15625 16.3025,29.515 16.3025,16.435625 C16.303125,13.84 16.731875,11.263125 17.573125,8.808125 Z" id="形状" fill="#3D6AB2" fill-rule="nonzero"></path>
            </g>
        </g>
    </g>
</svg>