<?xml version="1.0" encoding="UTF-8"?>
<svg width="17px" height="19px" viewBox="0 0 17 19" version="1.1" xmlns="http://www.w3.org/2000/svg" xmlns:xlink="http://www.w3.org/1999/xlink">
    <title>未命名</title>
    <defs>
        <filter id="filter-1">
            <feColorMatrix in="SourceGraphic" type="matrix" values="0 0 0 0 0.917969 0 0 0 0 0.855842 0 0 0 0 0.650904 0 0 0 1.000000 0"></feColorMatrix>
        </filter>
    </defs>
    <g id="页面-1" stroke="none" stroke-width="1" fill="none" fill-rule="evenodd" opacity="0.8">
        <g filter="url(#filter-1)" id="z">
            <g>
                <path d="M0.058125,2.675 L0.058125,2.98875 L0.09,2.98875 C0.24125,3.9425 1.06125,4.67375 2.0575,4.67375 L14.320625,4.67375 C15.316875,4.67375 16.13625,3.9425 16.288125,2.98875 L16.319375,2.98875 L16.319375,2.023125 C16.319375,0.91875 15.425,0.024375 14.320625,0.024375 L2.056875,0.024375 C0.953125,0.024375 0.0575,0.919375 0.0575,2.023125 L0.0575,2.675 L0.058125,2.675 Z M0.464375,16.5025 L0.464375,16.81625 L0.49625,16.81625 C0.6475,17.77 1.4675,18.50125 2.46375,18.50125 L14.726875,18.50125 C15.723125,18.50125 16.5425,17.77 16.694375,16.81625 L16.725625,16.81625 L16.725625,15.850625 C16.725625,14.74625 15.83125,13.851875 14.726875,13.851875 L2.46375,13.851875 C1.36,13.851875 0.464375,14.746875 0.464375,15.850625 L0.464375,16.5025 Z" id="形状" fill="#44BDDC" fill-rule="nonzero"></path>
                <path d="M1.26625,17.736875 C1.266875,17.736875 1.266875,17.7375 1.268125,17.738125 L1.47125,17.974375 L1.495625,17.95375 C2.2325,18.57875 3.330625,18.598125 4.08625,17.948125 L15.244375,4.35375 C16,3.704375 16.144375,2.615625 15.636875,1.793125 L15.660625,1.773125 L15.45625,1.535 L15.091875,1.111875 L15.03125,1.04125 C14.31125,0.20375 13.05,0.109375 12.2125,0.829375 L1.05375,14.42375 C0.216875,15.143125 0.121875,16.40625 0.841875,17.243125 L0.9025,17.31375 L1.26625,17.736875 L1.26625,17.736875 Z" id="路径" fill="#44BDDC" fill-rule="nonzero"></path>
            </g>
        </g>
    </g>
</svg>